<svg xmlns="http://www.w3.org/2000/svg" viewBox="0 0 32 32"><defs><style>.cls-1{fill:#fff;}</style></defs><g id="Layer_2" data-name="Layer 2"><g id="Layer_1-2" data-name="Layer 1"><rect width="32" height="32"/><path class="cls-1" d="M16,0A16,16,0,1,0,32,16,16,16,0,0,0,16,0Zm7.36,23.12a1,1,0,0,1-1.36.32c-3.76-2.32-8.48-2.8-14.08-1.52A1,1,0,1,1,7.44,20c6.08-1.36,11.36-.8,15.52,1.76A1,1,0,0,1,23.36,23.12Zm1.92-4.4a1.21,1.21,0,0,1-1.68.4A20.74,20.74,0,0,0,7.68,17.28,1.21,1.21,0,1,1,7,15a23.4,23.4,0,0,1,18,2.16A1.13,1.13,0,0,1,25.28,18.72Zm.16-4.48c-5.12-3-13.68-3.36-18.56-1.84A1.47,1.47,0,0,1,6,9.6c5.68-1.68,15-1.36,21,2.16a1.55,1.55,0,0,1,.56,2.08A1.68,1.68,0,0,1,25.44,14.24Z"/></g></g></svg>