<svg xmlns="http://www.w3.org/2000/svg" viewBox="0 0 32 32"><defs><style>.cls-1{fill:#fff;}</style></defs><g id="Layer_2" data-name="Layer 2"><g id="Layer_1-2" data-name="Layer 1"><rect width="32" height="32"/><path class="cls-1" d="M31.68,9.86a6.91,6.91,0,0,0-1.27-3.18A4.59,4.59,0,0,0,27.2,5.32C22.72,5,16,5,16,5h0S9.28,5,4.8,5.32A4.59,4.59,0,0,0,1.59,6.68,6.91,6.91,0,0,0,.32,9.86,48.11,48.11,0,0,0,0,15v2.43a48.41,48.41,0,0,0,.32,5.18,6.91,6.91,0,0,0,1.27,3.18,5.5,5.5,0,0,0,3.53,1.37c2.56.24,10.88.32,10.88.32s6.72,0,11.2-.34a4.57,4.57,0,0,0,3.21-1.35,6.91,6.91,0,0,0,1.27-3.18A48.41,48.41,0,0,0,32,17.46V15A48.11,48.11,0,0,0,31.68,9.86ZM12.7,20.4v-9l8.65,4.51Z"/></g></g></svg>